<svg xmlns="http://www.w3.org/2000/svg" data-name="Layer 1" viewBox="0 0 3237.68 1712.8" id="architect-working-on-virtual-building-plan"><path fill="#56b1da" d="M3295.59 1884a607.22 607.22 0 0 0 27.88-182.41c0-277.33-185.83-511.24-439.75-584a369.43 369.43 0 0 0 27.93-141.33c0-204.66-165.91-370.57-370.57-370.57a370.82 370.82 0 0 0-101.45 14.06c-137-220.43-381.33-367.22-660-367.22-360.32 0-663.29 245.43-751 578.22-417.6 12.88-752.19 355.41-752.19 776.13a774.63 774.63 0 0 0 51 277.17Z" transform="translate(-182.4 -171.2)"></path><path fill="#fff" d="M1506.52 312.17h-150l-75 129.91 75 129.9h150l75-129.9-75-129.91z" opacity=".5"></path><path fill="#3d7e9c" d="M788.46 1339.6c-170.94 0-315.09 114.64-359.78 271.23h719.56c-44.69-156.58-188.84-271.23-359.78-271.23ZM1770 1339.6c-170.94 0-315.09 114.64-359.78 271.23h719.56c-44.69-156.58-188.85-271.23-359.78-271.23Z" transform="translate(-182.4 -171.2)"></path><path fill="#3d7e9c" d="M1302.37 1223.41c-244.16 0-450.07 163.76-513.91 387.43h1027.82c-63.84-223.67-269.75-387.43-513.91-387.43Z" transform="translate(-182.4 -171.2)"></path><g opacity=".5"><path fill="#ff7975" d="M1421.87 452v1013.51h-136.43V263.14L1421.87 452z"></path><path fill="#fe9896" d="M1285.44 263.14v1202.37h-136.43V452l136.43-188.86z"></path><path fill="#fec5c4" d="M1149.01 468.89h136.43v32.02h-136.43z"></path><path fill="#fe9896" d="M1285.44 468.89h136.43v32.02h-136.43z"></path><path fill="#fec5c4" d="M1149.01 558.56h136.43v32.02h-136.43z"></path><path fill="#fe9896" d="M1285.44 558.56h136.43v32.02h-136.43z"></path><path fill="#fec5c4" d="M1149.01 648.23h136.43v32.02h-136.43z"></path><path fill="#fe9896" d="M1285.44 648.23h136.43v32.02h-136.43z"></path><path fill="#fec5c4" d="M1149.01 737.9h136.43v32.02h-136.43z"></path><path fill="#fe9896" d="M1285.44 737.9h136.43v32.02h-136.43z"></path><path fill="#fec5c4" d="M1149.01 827.57h136.43v32.02h-136.43z"></path><path fill="#fe9896" d="M1285.44 827.57h136.43v32.02h-136.43z"></path><path fill="#fec5c4" d="M1149.01 917.24h136.43v32.02h-136.43z"></path><path fill="#fe9896" d="M1285.44 917.24h136.43v32.02h-136.43z"></path><path fill="#fec5c4" d="M1149.01 1006.92h136.43v32.02h-136.43z"></path><path fill="#fe9896" d="M1285.44 1006.92h136.43v32.02h-136.43z"></path><path fill="#fec5c4" d="M1149.01 1096.59h136.43v32.02h-136.43z"></path><path fill="#fe9896" d="M1285.44 1096.59h136.43v32.02h-136.43z"></path><path fill="#fec5c4" d="M1149.01 1186.26h136.43v32.02h-136.43z"></path><path fill="#fe9896" d="M1285.44 1186.26h136.43v32.02h-136.43z"></path><path fill="#fec5c4" d="M1149.01 1275.93h136.43v32.02h-136.43z"></path><path fill="#fe9896" d="M1285.44 1275.93h136.43v32.02h-136.43z"></path><path fill="#fec5c4" d="M1149.01 1365.6h136.43v32.02h-136.43z"></path><path fill="#fe9896" d="M1285.44 1365.6h136.43v32.02h-136.43z"></path></g><rect width="1788.37" height="112.18" x="723.41" y="1436.34" fill="#458fb0" rx="56.09" ry="56.09"></rect><path fill="#d0f1f2" d="M409.94 413.38c-108.11 0-199.27 72.5-227.54 171.54h455.08C609.22 485.88 518 413.38 409.94 413.38ZM1030.7 413.38c-108.11 0-199.27 72.5-227.54 171.54h455.08c-28.24-99.04-119.43-171.54-227.54-171.54Z" transform="translate(-182.4 -171.2)"></path><path fill="#d0f1f2" d="M735 339.89c-154.42 0-284.64 103.57-325 245h650c-40.4-141.43-170.63-245-325-245Z" transform="translate(-182.4 -171.2)"></path><path fill="#fff" d="M446.45 560.3a146.22 146.22 0 0 0-140.56 106H587a146.22 146.22 0 0 0-140.55-106ZM829.91 560.3a146.22 146.22 0 0 0-140.56 106h281.11a146.22 146.22 0 0 0-140.55-106Z" transform="translate(-182.4 -171.2)"></path><path fill="#fff" d="M647.22 514.91c-95.39 0-175.83 64-200.77 151.36H848c-25-87.39-105.39-151.36-200.78-151.36Z" transform="translate(-182.4 -171.2)"></path><path fill="#3d7e9c" d="M2722.61 879a194.62 194.62 0 0 0-187.08 141h374.16a194.62 194.62 0 0 0-187.08-141ZM3233 879a194.62 194.62 0 0 0-187.08 141h374.16A194.62 194.62 0 0 0 3233 879Z" transform="translate(-182.4 -171.2)"></path><path fill="#3d7e9c" d="M2989.84 818.56c-127 0-234 85.15-267.23 201.46h534.45c-33.19-116.31-140.26-201.46-267.22-201.46ZM1417.35 204.94a108.67 108.67 0 0 0-104.47 78.76h208.93a108.67 108.67 0 0 0-104.46-78.76ZM1702.36 204.94a108.67 108.67 0 0 0-104.47 78.76h208.93a108.67 108.67 0 0 0-104.46-78.76Z" transform="translate(-182.4 -171.2)"></path><path fill="#3d7e9c" d="M1566.57 171.2a155.23 155.23 0 0 0-149.22 112.5h298.44a155.23 155.23 0 0 0-149.22-112.5Z" transform="translate(-182.4 -171.2)"></path><path fill="#fff" d="M2474.53 459.35c-103.17 0-190.17 69.19-217.14 163.7h434.29c-26.98-94.51-113.98-163.7-217.15-163.7ZM3066.93 459.35c-103.17 0-190.17 69.19-217.14 163.7h434.29c-26.98-94.51-113.98-163.7-217.15-163.7Z" transform="translate(-182.4 -171.2)"></path><path fill="#fff" d="M2784.7 389.22c-147.36 0-271.64 98.83-310.17 233.83h620.33c-38.53-135-162.8-233.83-310.16-233.83ZM1101.06 647.19s66.37-262.27 25.2-316.56-132.59 188.18-85.53 344.8Z" transform="translate(-182.4 -171.2)"></path><path fill="#41455e" d="M1148.73 611c-43.78 6.79-87.17 12.79-131.23 12.62 146.73 699.76 559.4 1122.62 1169.88 566.63 93.38-85 101.6-99.72 9.47-177.35 11.19-19.08 11.37-19 0 0-92.12-77.64-99.51-23.53-170.55 45.62-464.42 452.06-776 91.21-877.57-447.52Z" transform="translate(-182.4 -171.2)"></path><path fill="#54597a" d="M2476.5 1268.41v368.31h-597.9v-368.31a299 299 0 1 1 597.9 0Z" transform="translate(-182.4 -171.2)"></path><path fill="#41455e" d="M2643.24 1636.72h-208.89c-40.68-89.85-93.12-190.26-157.38-305.13-119.49-213.54 105-311.55 171.66-189.39 1.74 3.18 3.39 6.48 4.89 10 80.01 183.8 144.54 342.59 189.72 484.52Z" transform="translate(-182.4 -171.2)"></path><path fill="#fff" d="M2318.65 672c-72.4 177.92-255 271.71-363.76 227.46s-102.38-209.78-30-387.69S2122.3 279.23 2231 323.48s160 170.65 87.65 348.52Z" transform="translate(-182.4 -171.2)"></path><path fill="#fff" d="m2287.68 678.34-200.77-19.6c-2.71 27.49-23.74 289.27-13.55 387.93 7.37 30.39 57.43 44.33 111.81 31.14 48.89-11.86 84.3-41.59 85.67-69.56h.23c-6.07-59.25 7.26-233.85 16.61-329.91Z" transform="translate(-182.4 -171.2)"></path><path fill="#1a1c2e" d="M1913.22 710.78c20.14-2.68 42.19-5 59.37 5.87 6.12 3.87 11.25 9.22 17.64 12.62 4.44 2.35 9.35 3.69 13.87 5.87 10 4.83 17.49 13.5 24.69 21.93 10.2 11.94 34.71 45.9 5.71 51.61-6.64 1.31-13.58-.3-19.72-3.15-20.4-9.45-32.71-31.33-52.73-41.58a108.69 108.69 0 0 0-11.19-4.71c-12.22-4.62-24.46-9.24-37.07-12.63-5.66-1.52-11.51-2.85-16.42-6s-8.78-8.76-8.09-14.58c1.2-10.2 13.8-13.9 23.94-15.25ZM2411.31 590.59a29.82 29.82 0 0 0 0 9.24c1 6.09 4 11.64 6.33 17.37a68.08 68.08 0 0 1 5 22.89 57.57 57.57 0 0 1-6.12 29.4c-8.28 16-26 27.3-43.89 25.86-6.33-.51-12.45-2.49-18.45-4.53-9.42-3.21-22.26-6.6-35.1-10.83-27.3-5.82-60.18-20.4-84.33-68.46-46.68-92.91-45.81-9.6-182.37-74.22s-73.83-172.47-73.83-172.47c4.32-6.09 8.91-11.28 13.5-16.59-8.94-13-16-28.47-9.6-42.33 7.86-17.16 30.45-20.31 49.32-21.09-1.44-16.8-.9-34.38 6.33-49.59s22.47-27.63 39.33-27.24c16.2.36 25.11 5.46 38.64-5.94 8.55-7.2 11.49-20.16 21-26.55 11.19-7.56 26.1 4.74 29.73 17.73s1.77 27.48 7.83 39.54c5 9.9 14.52 16.53 22.56 24.18 11.67 11.07 20.25 24.63 27 39.24a289.93 289.93 0 0 1 77.49 43.23 226.22 226.22 0 0 1 25.35 23.1 177.79 177.79 0 0 1 13.2 15.87 220.48 220.48 0 0 1 25.77 45.75 33.83 33.83 0 0 0 6.6 3.84c5.16 2.13 10.8 2.55 16.23 3.81 25.2 5.73 44.07 29 49.26 54.36s-1.62 52-13.86 74.7c-5.23 9.54-11.39 19.38-12.92 29.73Z" transform="translate(-182.4 -171.2)"></path><path fill="#fff" d="M2373.86 752.91c-16.85 41.41-79.52 77.64-109.51 65.44s-23.83-48.83-7-90.24 56.93-70.26 86.92-58.06 46.44 41.45 29.59 82.86Z" transform="translate(-182.4 -171.2)"></path><path fill="#1a1c2e" d="M2245.29 761.32s24.88-6.51 5.85 28.22S2108.23 940.16 1982.71 932s-127.89-127.59-124.87-151.6 14.52-36 31.1 18.65 71 96.48 128.61 91.12 157.17-60 185.37-83.85c27.19-22.97 42.37-45 42.37-45Z" transform="translate(-182.4 -171.2)"></path><g opacity=".5"><path fill="#fec5c4" d="M2458.15 971.6v493.92h-348.69V769.38l348.69 202.22z"></path><path fill="#feaead" d="M2109.46 894.52h111.94v52.06h-111.94zM2109.46 1024.22h348.69v52.06h-348.69zM2109.46 1153.99h348.69v52.06h-348.69zM2109.46 1283.7h348.69v52.06h-348.69zM2109.46 1413.4h348.69v52.12h-348.69z"></path></g><g opacity=".5"><path fill="#ff7975" d="M1696.09 1465.52h-78.16V808.89l39.53-22.4 38.63 22.4v656.63z"></path><path fill="#fe9896" d="M1600.75 884.41h112.52v581.11h-112.52z"></path><path fill="#ff7975" d="M1569.36 957.67h175.31v507.85h-175.31z"></path><path fill="#fe9896" d="M1588.26 978.73h12.49v465.74h-12.49zM1619.73 978.73h12.49v465.74h-12.49zM1651.21 978.73h12.49v465.74h-12.49zM1682.69 978.73h12.49v465.74h-12.49zM1714.16 978.73h12.49v465.74h-12.49z"></path><path fill="#ff7975" d="M1619.73 899.87h12.49v45.49h-12.49zM1651.21 899.87h12.49v45.49h-12.49zM1682.69 899.87h12.49v45.49h-12.49z"></path><path fill="#fe9896" d="M1635.02 825.05h12.49v45.49h-12.49zM1666.5 825.05h12.49v45.49h-12.49z"></path></g><g opacity=".8"><path fill="#ff7975" d="M2475.6 657.64v807.87h-108.75V507.1l108.75 150.54z"></path><path fill="#fe9896" d="M2366.85 507.1v958.41H2258.1V657.64l108.75-150.54z"></path><path fill="#fec5c4" d="M2258.1 671.1h108.75v25.53H2258.1z"></path><path fill="#fe9896" d="M2366.85 671.1h108.75v25.53h-108.75z"></path><path fill="#fec5c4" d="M2258.1 742.58h108.75v25.53H2258.1z"></path><path fill="#fe9896" d="M2366.85 742.58h108.75v25.53h-108.75z"></path><path fill="#fec5c4" d="M2258.1 814.05h108.75v25.53H2258.1z"></path><path fill="#fe9896" d="M2366.85 814.05h108.75v25.53h-108.75z"></path><path fill="#fec5c4" d="M2258.1 885.53h108.75v25.53H2258.1z"></path><path fill="#fe9896" d="M2366.85 885.53h108.75v25.53h-108.75z"></path><path fill="#fec5c4" d="M2258.1 957.01h108.75v25.53H2258.1z"></path><path fill="#fe9896" d="M2366.85 957.01h108.75v25.53h-108.75z"></path><path fill="#fec5c4" d="M2258.1 1028.49h108.75v25.53H2258.1z"></path><path fill="#fe9896" d="M2366.85 1028.49h108.75v25.53h-108.75z"></path><path fill="#fec5c4" d="M2258.1 1099.96h108.75v25.53H2258.1z"></path><path fill="#fe9896" d="M2366.85 1099.96h108.75v25.53h-108.75z"></path><path fill="#fec5c4" d="M2258.1 1171.44h108.75v25.53H2258.1z"></path><path fill="#fe9896" d="M2366.85 1171.44h108.75v25.53h-108.75z"></path><path fill="#fec5c4" d="M2258.1 1242.92h108.75v25.53H2258.1z"></path><path fill="#fe9896" d="M2366.85 1242.92h108.75v25.53h-108.75z"></path><path fill="#fec5c4" d="M2258.1 1314.4h108.75v25.53H2258.1z"></path><path fill="#fe9896" d="M2366.85 1314.4h108.75v25.53h-108.75z"></path><path fill="#fec5c4" d="M2258.1 1385.87h108.75v25.53H2258.1z"></path><path fill="#fe9896" d="M2366.85 1385.87h108.75v25.53h-108.75z"></path></g><path fill="#fec5c4" d="M1514.62 882.72v582.8h-154.87V786.49l154.87 96.23z"></path><path fill="#fe9896" d="M1514.62 905.56v559.96h-137.17V820.35l137.17 85.21z"></path><path fill="#ff7975" d="M1377.45 909.71h149.4v21.05h-149.4zM1377.45 957.67h149.4v21.05h-149.4zM1377.45 1005.64h149.4v21.05h-149.4zM1377.45 1053.6h149.4v21.05h-149.4zM1377.45 1101.57h149.4v21.05h-149.4zM1377.45 1149.53h149.4v21.05h-149.4zM1377.45 1197.5h149.4v21.05h-149.4zM1377.45 1245.46h149.4v21.05h-149.4zM1377.45 1293.42h149.4v21.05h-149.4zM1377.45 1341.39h149.4v21.05h-149.4zM1377.45 1389.35h149.4v21.05h-149.4z"></path><path fill="#fec5c4" d="M1224.69 738.06v727.46h-202.4V620.68l202.4 117.38z"></path><path fill="#feaead" d="M1022.3 693.32h64.97v30.22h-64.97zM1022.3 768.6h202.39v30.22H1022.3zM1022.3 843.92h202.39v30.22H1022.3zM1022.3 919.21h202.39v30.22H1022.3zM1022.3 994.49h202.39v30.25H1022.3zM1022.3 1069.81h202.39v30.22H1022.3zM1022.3 1145.1h202.39v30.25H1022.3zM1022.3 1220.42h202.39v30.22H1022.3zM1022.3 1295.7h202.39v30.22H1022.3zM1022.3 1371.02h202.39v30.22H1022.3z"></path><g opacity=".5"><path fill="#ff7975" d="M889.06 804.51h177.95v661.01H889.06z"></path><path fill="#fe9896" d="M862.24 841.2h231.58v624.32H862.24z"></path><path fill="#ff7975" d="M879.95 866.33h21.31v36.25h-21.31zM914.92 866.33h21.31v36.25h-21.31zM949.89 866.33h21.31v36.25h-21.31zM984.86 866.33h21.31v36.25h-21.31zM1019.84 866.33h21.31v36.25h-21.31zM1054.81 866.33h21.31v36.25h-21.31zM879.95 918.13h21.31v36.25h-21.31zM914.92 918.13h21.31v36.25h-21.31zM949.89 918.13h21.31v36.25h-21.31zM984.86 918.13h21.31v36.25h-21.31zM1019.84 918.13h21.31v36.25h-21.31zM1054.81 918.13h21.31v36.25h-21.31zM879.95 969.93h21.31v36.25h-21.31zM914.92 969.93h21.31v36.25h-21.31zM949.89 969.93h21.31v36.25h-21.31zM984.86 969.93h21.31v36.25h-21.31zM1019.84 969.93h21.31v36.25h-21.31zM1054.81 969.93h21.31v36.25h-21.31zM879.95 1021.73h21.31v36.25h-21.31zM914.92 1021.73h21.31v36.25h-21.31zM949.89 1021.73h21.31v36.25h-21.31zM984.86 1021.73h21.31v36.25h-21.31zM1019.84 1021.73h21.31v36.25h-21.31zM1054.81 1021.73h21.31v36.25h-21.31zM879.95 1073.53h21.31v36.25h-21.31zM914.92 1073.53h21.31v36.25h-21.31zM949.89 1073.53h21.31v36.25h-21.31zM984.86 1073.53h21.31v36.25h-21.31zM1019.84 1073.53h21.31v36.25h-21.31zM1054.81 1073.53h21.31v36.25h-21.31zM879.95 1125.34h21.31v36.25h-21.31zM914.92 1125.34h21.31v36.25h-21.31zM949.89 1125.34h21.31v36.25h-21.31zM984.86 1125.34h21.31v36.25h-21.31zM1019.84 1125.34h21.31v36.25h-21.31zM1054.81 1125.34h21.31v36.25h-21.31zM879.95 1177.14h21.31v36.25h-21.31zM914.92 1177.14h21.31v36.25h-21.31zM949.89 1177.14h21.31v36.25h-21.31zM984.86 1177.14h21.31v36.25h-21.31zM1019.84 1177.14h21.31v36.25h-21.31zM1054.81 1177.14h21.31v36.25h-21.31zM879.95 1228.94h21.31v36.25h-21.31zM914.92 1228.94h21.31v36.25h-21.31zM949.89 1228.94h21.31v36.25h-21.31zM984.86 1228.94h21.31v36.25h-21.31zM1019.84 1228.94h21.31v36.25h-21.31zM1054.81 1228.94h21.31v36.25h-21.31zM879.95 1280.74h21.31v36.25h-21.31zM914.92 1280.74h21.31v36.25h-21.31zM949.89 1280.74h21.31v36.25h-21.31zM984.86 1280.74h21.31v36.25h-21.31zM1019.84 1280.74h21.31v36.25h-21.31zM1054.81 1280.74h21.31v36.25h-21.31zM879.95 1332.54h21.31v36.25h-21.31zM914.92 1332.54h21.31v36.25h-21.31zM949.89 1332.54h21.31v36.25h-21.31zM984.86 1332.54h21.31v36.25h-21.31zM1019.84 1332.54h21.31v36.25h-21.31zM1054.81 1332.54h21.31v36.25h-21.31zM879.95 1384.34h21.31v36.25h-21.31zM914.92 1384.34h21.31v36.25h-21.31zM949.89 1384.34h21.31v36.25h-21.31zM984.86 1384.34h21.31v36.25h-21.31zM1019.84 1384.34h21.31v36.25h-21.31zM1054.81 1384.34h21.31v36.25h-21.31z"></path></g><path fill="#fe5e5b" d="M2422.62 640.09H2272v-49.5h139.32a29.82 29.82 0 0 0 0 9.24c1 6.09 4 11.64 6.33 17.37a68.08 68.08 0 0 1 4.97 22.89ZM2340.18 378.4c-152.85 39.12-219.75 133.38-220.41 134.37l-39.57-27.18c3-4.35 69.18-99 221.43-146.16a226.22 226.22 0 0 1 25.35 23.1 177.79 177.79 0 0 1 13.2 15.87Z" transform="translate(-182.4 -171.2)"></path><path fill="#fe8482" d="m2331.52 534.27-403.76-191.9a30.2 30.2 0 0 0-40.23 14.31l-72.07 151.62a39.35 39.35 0 0 0 18.65 52.43l148.74 70.69a25.9 25.9 0 0 0 28.39-4.09l23.76-21.27a16.28 16.28 0 0 1 17.85-2.57 16.29 16.29 0 0 1 9.2 16.45l-3.05 28.47a25.9 25.9 0 0 0 14.63 26.17l147.69 70.2a39.35 39.35 0 0 0 52.43-18.65l72.07-151.63a30.2 30.2 0 0 0-14.3-40.23Z" transform="translate(-182.4 -171.2)"></path><circle cx="1384.17" cy="281.41" r="14.22" fill="#2b596e"></circle><circle cx="1384.17" cy="330.09" r="14.22" fill="#2b596e"></circle><circle cx="1384.17" cy="378.77" r="14.22" fill="#2b596e"></circle><circle cx="1384.17" cy="427.45" r="14.22" fill="#2b596e"></circle><circle cx="1384.17" cy="476.13" r="14.22" fill="#2b596e"></circle><circle cx="1384.17" cy="524.8" r="14.22" fill="#2b596e"></circle><circle cx="1384.17" cy="573.48" r="14.22" fill="#2b596e"></circle><circle cx="1384.17" cy="622.16" r="14.22" fill="#2b596e"></circle><circle cx="1384.17" cy="670.84" r="14.22" fill="#2b596e"></circle><circle cx="1384.17" cy="719.52" r="14.22" fill="#2b596e"></circle><circle cx="2001.38" cy="855.6" r="14.22" fill="#49e1e6"></circle><circle cx="2001.38" cy="904.28" r="14.22" fill="#49e1e6"></circle><circle cx="2001.38" cy="952.96" r="14.22" fill="#49e1e6"></circle><circle cx="2001.38" cy="1001.64" r="14.22" fill="#49e1e6"></circle><circle cx="2001.38" cy="1050.32" r="14.22" fill="#49e1e6"></circle><circle cx="2001.38" cy="1098.99" r="14.22" fill="#49e1e6"></circle><circle cx="2001.38" cy="1147.67" r="14.22" fill="#49e1e6"></circle><circle cx="2001.38" cy="1196.35" r="14.22" fill="#49e1e6"></circle><circle cx="2001.38" cy="1245.03" r="14.22" fill="#49e1e6"></circle><circle cx="2001.38" cy="1293.71" r="14.22" fill="#49e1e6"></circle><circle cx="351.6" cy="926.04" r="14.22" fill="#2b596e"></circle><circle cx="351.6" cy="974.72" r="14.22" fill="#2b596e"></circle><circle cx="351.6" cy="1023.4" r="14.22" fill="#2b596e"></circle><circle cx="351.6" cy="1072.08" r="14.22" fill="#2b596e"></circle><circle cx="351.6" cy="1120.76" r="14.22" fill="#2b596e"></circle><circle cx="351.6" cy="1169.44" r="14.22" fill="#2b596e"></circle><circle cx="351.6" cy="1218.11" r="14.22" fill="#2b596e"></circle><circle cx="351.6" cy="1266.79" r="14.22" fill="#2b596e"></circle><circle cx="351.6" cy="1315.47" r="14.22" fill="#2b596e"></circle><circle cx="351.6" cy="1364.15" r="14.22" fill="#2b596e"></circle><circle cx="418.82" cy="850.76" r="14.22" fill="#49e1e6"></circle><circle cx="418.82" cy="899.44" r="14.22" fill="#49e1e6"></circle><circle cx="418.82" cy="948.12" r="14.22" fill="#49e1e6"></circle><circle cx="418.82" cy="996.79" r="14.22" fill="#49e1e6"></circle><circle cx="418.82" cy="1045.47" r="14.22" fill="#49e1e6"></circle><circle cx="418.82" cy="1094.15" r="14.22" fill="#49e1e6"></circle><circle cx="418.82" cy="1142.83" r="14.22" fill="#49e1e6"></circle><circle cx="418.82" cy="1191.51" r="14.22" fill="#49e1e6"></circle><circle cx="418.82" cy="1240.19" r="14.22" fill="#49e1e6"></circle><circle cx="418.82" cy="1288.87" r="14.22" fill="#49e1e6"></circle><circle cx="788.06" cy="181.32" r="28.43" fill="#fe9896"></circle><circle cx="1384.17" cy="181.32" r="28.43" fill="#fe9896"></circle><path fill="none" stroke="#fe9896" stroke-linecap="round" stroke-linejoin="round" stroke-width="12" d="M788.06 181.32h9"></path><path fill="none" stroke="#fe9896" stroke-dasharray="17.52 17.52" stroke-linecap="round" stroke-linejoin="round" stroke-width="12" d="M814.58 181.32h551.83"></path><path fill="none" stroke="#fe9896" stroke-linecap="round" stroke-linejoin="round" stroke-width="12" d="M1375.17 181.32h9"></path><circle cx="1408.74" cy="1508.33" r="28.43" fill="#fe9896"></circle><circle cx="2004.85" cy="1508.33" r="28.43" fill="#fe9896"></circle><path fill="none" stroke="#fe9896" stroke-linecap="round" stroke-linejoin="round" stroke-width="12" d="M1408.74 1508.33h9"></path><path fill="none" stroke="#fe9896" stroke-dasharray="17.52 17.52" stroke-linecap="round" stroke-linejoin="round" stroke-width="12" d="M1435.26 1508.33h551.83"></path><path fill="none" stroke="#fe9896" stroke-linecap="round" stroke-linejoin="round" stroke-width="12" d="M1995.85 1508.33h9"></path><circle cx="1205.62" cy="1605.46" r="28.43" fill="#fff"></circle><circle cx="1801.73" cy="1605.46" r="28.43" fill="#fff"></circle><path fill="none" stroke="#fff" stroke-linecap="round" stroke-linejoin="round" stroke-width="12" d="M1205.62 1605.46h9"></path><path fill="none" stroke="#fff" stroke-dasharray="17.52 17.52" stroke-linecap="round" stroke-linejoin="round" stroke-width="12" d="M1232.14 1605.46h551.83"></path><path fill="none" stroke="#fff" stroke-linecap="round" stroke-linejoin="round" stroke-width="12" d="M1792.73 1605.46h9"></path><path fill="none" stroke="#fff" stroke-dasharray="18" stroke-linecap="round" stroke-linejoin="round" stroke-width="12" d="M750.6 746.13h-150l-75 129.91 75 129.9h150l75-129.9-75-129.91z"></path><path fill="#41455e" d="M1176.52 455.37h-92.07l-46.04 79.74 46.04 79.75h92.07l46.04-79.75-46.04-79.74zM598.59 810.32h-92.08l-46.03 79.74 46.03 79.75h92.08l46.04-79.75-46.04-79.74z" opacity=".5"></path><path fill="#fff" d="M866.02 894.84h-150l-75 129.9 75 129.91h150l75-129.91-75-129.9zM2525.03 1072.09h77.26v384.8h-77.26zM2645.53 988.94h77.26v467.95h-77.26zM2766.02 1072.09h77.26v384.8h-77.26z" opacity=".5"></path><path fill="#fff" d="M1487.34 614.85h16.33v171.64h-16.33zM1518.69 614.85h16.33v171.64h-16.33zM1550.04 614.85h16.33v171.64h-16.33zM1581.39 614.85h16.33v171.64h-16.33zM465.51 1327.58h16.33v171.64h-16.33zM496.86 1327.58h16.33v171.64h-16.33zM528.21 1327.58h16.33v171.64h-16.33zM559.56 1327.58h16.33v171.64h-16.33z"></path><circle cx="2684.16" cy="585.45" r="14.22" fill="#fe8482"></circle><circle cx="2684.16" cy="634.13" r="14.22" fill="#fe8482"></circle><circle cx="2684.16" cy="682.81" r="14.22" fill="#fe8482"></circle><circle cx="2684.16" cy="731.49" r="14.22" fill="#fe8482"></circle><circle cx="2684.16" cy="780.17" r="14.22" fill="#fe8482"></circle><circle cx="2684.16" cy="828.84" r="14.22" fill="#fe8482"></circle><circle cx="2684.16" cy="877.52" r="14.22" fill="#fe8482"></circle><circle cx="2684.16" cy="926.2" r="14.22" fill="#fe8482"></circle><circle cx="2684.16" cy="974.88" r="14.22" fill="#fe8482"></circle><circle cx="2684.16" cy="1023.56" r="14.22" fill="#fe8482"></circle><path fill="#fff" d="M2481.55 515.27h38.82v38.82h-38.82zM2509.27 580.26h38.82v38.82h-38.82zM2288.74 487.69h38.82v38.82h-38.82zM2590.29 608.54h38.82v38.82h-38.82z" opacity=".5"></path><path fill="#fff" d="M2481.55 602.75h38.82v38.82h-38.82zM2442.73 476.45h38.82v38.82h-38.82zM2442.73 551.85h38.82v38.82h-38.82zM1472.49 248.99h38.82v38.82h-38.82zM1500.21 313.98h38.82v38.82h-38.82zM1432.75 399.98h38.82v38.82h-38.82z" opacity=".5"></path><path fill="#fff" d="M1491.9 229.58h38.82v38.82h-38.82zM2500.96 491.18h38.82V530h-38.82zM1433.67 210.17h38.82v38.82h-38.82zM1433.67 285.57h38.82v38.82h-38.82zM530.69 1110.34h38.82v38.82h-38.82zM558.41 1211.4h38.82v38.82h-38.82z" opacity=".5"></path><path fill="#fff" d="M550.1 1090.93h38.82v38.82H550.1zM491.87 1071.52h38.82v38.82h-38.82zM491.87 1146.91h38.82v38.82h-38.82zM2923.35 1351.85h38.82v38.82h-38.82zM2951.07 1416.84h38.82v38.82h-38.82zM2962.17 1211.4h38.82v38.82h-38.82zM3000.99 1369.01h38.82v38.82h-38.82z" opacity=".5"></path><path fill="#fff" d="M2942.76 1332.44h38.82v38.82h-38.82zM3039.81 1407.84h38.82v38.82h-38.82zM2884.53 1313.03h38.82v38.82h-38.82zM2884.53 1388.43h38.82v38.82h-38.82z" opacity=".5"></path><path fill="#fff" d="M1937.09 515.51a31.61 31.61 0 0 0 31.61-31.61 31.61 31.61 0 0 0 31.61 31.61 31.61 31.61 0 0 0-31.61 31.61 31.61 31.61 0 0 0-31.61-31.61ZM355.6 1454.9a31.61 31.61 0 0 0 31.61-31.61 31.61 31.61 0 0 0 31.61 31.61 31.61 31.61 0 0 0-31.61 31.61 31.61 31.61 0 0 0-31.61-31.61ZM1320.7 476.18a31.61 31.61 0 0 0 31.61-31.61 31.61 31.61 0 0 0 31.61 31.61 31.61 31.61 0 0 0-31.61 31.61 31.61 31.61 0 0 0-31.61-31.61ZM2752.58 1122.15a31.61 31.61 0 0 0 31.61-31.61 31.61 31.61 0 0 0 31.61 31.61 31.61 31.61 0 0 0-31.61 31.61 31.61 31.61 0 0 0-31.61-31.61ZM1909.63 426.1a22.23 22.23 0 0 0 22.23-22.23 22.23 22.23 0 0 0 22.23 22.23 22.23 22.23 0 0 0-22.23 22.23 22.23 22.23 0 0 0-22.23-22.23ZM3060 1351.24a22.23 22.23 0 0 0 22.23-22.23 22.23 22.23 0 0 0 22.23 22.23 22.23 22.23 0 0 0-22.23 22.23 22.23 22.23 0 0 0-22.23-22.23ZM2330.09 888.48a22.23 22.23 0 0 0 22.23-22.23 22.23 22.23 0 0 0 22.23 22.23 22.23 22.23 0 0 0-22.23 22.23 22.23 22.23 0 0 0-22.23-22.23ZM424.22 1373.48a22.23 22.23 0 0 0 22.23-22.23 22.23 22.23 0 0 0 22.23 22.23 22.23 22.23 0 0 0-22.23 22.23 22.23 22.23 0 0 0-22.23-22.23Z" transform="translate(-182.4 -171.2)"></path><path fill="none" stroke="#3b3e54" stroke-linecap="round" stroke-linejoin="round" stroke-width="12.59" d="M2680.1 1449.17V1132.1M2680.1 1237.99l44.39-44.39M2680.1 1345.93l44.39-44.39M2680.1 1285.03l-46.01-46.01"></path><path fill="#fe5e5a" d="M2862.5 1234.89v136.83s28.54-30.63 28.54-68.41-28.54-68.42-28.54-68.42Z" transform="translate(-182.4 -171.2)"></path><path fill="#fe9391" d="M2834 1303.3c0 37.78 28.54 68.41 28.54 68.41v-136.82s-28.54 30.63-28.54 68.41Z" transform="translate(-182.4 -171.2)"></path><path fill="#fe5e5a" d="m2975 1297.08-84 84s36.31-1.28 59.49-24.46 24.51-59.54 24.51-59.54Z" transform="translate(-182.4 -171.2)"></path><path fill="#fe9391" d="M2915.51 1321.54C2892.33 1344.72 2891 1381 2891 1381l84-84s-36.31 1.36-59.49 24.54Z" transform="translate(-182.4 -171.2)"></path><path fill="#fe5e5a" d="m2975 1404.64-84 84s36.31-1.28 59.49-24.46 24.51-59.54 24.51-59.54Z" transform="translate(-182.4 -171.2)"></path><path fill="#fe9391" d="M2915.51 1429.1c-23.18 23.18-24.46 59.49-24.46 59.49l84-84s-36.36 1.33-59.54 24.51ZM2826.18 1419.91l-78.51-78.51s1.2 34 22.88 55.63 55.63 22.88 55.63 22.88Z" transform="translate(-182.4 -171.2)"></path><path fill="#fe5e5a" d="M2803.3 1364.28c-21.68-21.68-55.63-22.88-55.63-22.88l78.51 78.51s-1.18-33.91-22.88-55.63Z" transform="translate(-182.4 -171.2)"></path><path fill="none" stroke="#3b3e54" stroke-linecap="round" stroke-linejoin="round" stroke-width="12.59" d="m2680.1 1387.85-46.01-46.01"></path><path fill="#fe9391" d="m2826.18 1522.73-78.51-78.51s1.2 34 22.88 55.63 55.63 22.88 55.63 22.88Z" transform="translate(-182.4 -171.2)"></path><path fill="#fe5e5a" d="M2803.3 1467.1c-21.68-21.68-55.63-22.88-55.63-22.88l78.51 78.51s-1.18-33.95-22.88-55.63Z" transform="translate(-182.4 -171.2)"></path><path fill="#2b596e" d="M2463.23 1600.73a193.2 193.2 0 0 0-185.72 140H2649a193.2 193.2 0 0 0-185.77-140ZM2969.9 1600.73a193.2 193.2 0 0 0-185.72 140h371.44a193.2 193.2 0 0 0-185.72-140Z" transform="translate(-182.4 -171.2)"></path><path fill="#2b596e" d="M2728.51 1540.75c-126 0-232.33 84.53-265.28 200h530.57c-32.96-115.46-139.25-200-265.29-200Z" transform="translate(-182.4 -171.2)"></path></svg>